# xmcd CD Database Entry
#
# Track frame offsets:
# 150
# 24437
# 50201
# 93080
# 111342
# 163646
# 189191
# 219891
# 258371
# 281224
#
# Disc length: 4151 seconds
#
# Revision: 1
# Processed by: cddbd v1.4PL0 Copyright (c) Steve Scherf et al.
# Submitted via: tcd 2.0b
#
DISCID=8610350a
DTITLE=모름 /내가너를 도우리라 
DYEAR=1900
DGENRE=
TTITLE0=1번 트랙
TTITLE1=2번 트랙
TTITLE2=3번 트랙
TTITLE3=4번 트랙
TTITLE4=5번 트랙
TTITLE5=6번 트랙
TTITLE6=7번 트랙
TTITLE7=8번 트랙
TTITLE8=9번 트랙
TTITLE9=10번 트랙
EXTD=
EXTT0=
EXTT1=
EXTT2=
EXTT3=
EXTT4=
EXTT5=
EXTT6=
EXTT7=
EXTT8=
EXTT9=
PLAYORDER=
